<?xml version="1.0" encoding="UTF-8"?>
<svg id="Layer_1" data-name="Layer 1" xmlns="http://www.w3.org/2000/svg" width="190.702" height="189.388" viewBox="0 0 190.702 189.388">
  <path d="M95.376,2c3.897.118,7.345,15.085,12.347,19.296,10.474,10.408,21.247-5.189,29.697-8.546,8.753-1.605-5.686,28.608,13.194,30.784,6.582.882,15.196-2.03,19.418-1.867,4.858-.01,2.784,4.455,1.09,7.302-5.4,8.955-13.267,20.656-.47,27.441,2.392,1.314,5.193,2.312,7.85,3.168,2.917,1.172,10.902,2.48,10.151,5.905-.275.794-.849,1.467-1.557,2.073-3.488,3.088-12.566,6.91-16.435,12.392-3.641,4.559-2.109,10.568,1.326,14.837,1.304,1.757,2.862,3.448,4.398,5.024,2.338,2.711,8.868,7.593,6.456,10.269-.641.564-1.482.885-2.407,1.087-4.414,1.041-13.616.323-19.573,3.018-12.234,5.033-3.96,21.001-2.532,28.765,1.807,13.147-22.196-11.831-31.902,1.101-4.989,6.132-4.397,16.848-7.106,22.039-5.273,7.828-14.61-24.211-29.79-14.492-5.603,3.368-10.24,11.344-13.604,14.383-.693.654-1.438,1.168-2.263,1.362-5.256,1.151-3.34-19.265-10.896-24.852-12.135-10.583-38.145,20.221-28.226-7.403,10.61-31.928-25.305-18.659-27.218-26.119.246-4.527,10.37-10.685,13.378-17.293,6.547-12.723-9.704-18.167-17.339-24.355-7.948-7.593,21.437-6.129,23.437-18.809,1.643-8.476-6.881-17.02-8.96-23.336-2.578-12.416,35.249,14.711,32.64-20.076.019-4.509-2.308-15.776,4.81-11.479,9.16,6.099,21.102,19.387,30.553,3.973,1.134-1.809,2.126-3.811,3.025-5.751,1.711-3.223,3.435-9.414,6.476-9.841h.034Z" style="fill: none; stroke: #e41e26; stroke-miterlimit: 10; stroke-width: 7px;"/>
  <path d="M45.15,113.689c-7.435-19.39-1.139-43.178,14.845-56.435,15.984-13.257,40.449-15.07,58.269-4.409,12.284,7.349,21.193,20.112,23.857,34.177,3.008,15.887-2.12,33.093-13.322,44.753-11.201,11.66-28.178,17.475-44.179,15.151" style="fill: none; stroke: #e41e26; stroke-miterlimit: 10; stroke-width: 7px;"/>
  <path d="M68.846,102.984l9.877,11.436c.964,1.117,2.055,2.306,3.513,2.528,2.025.309,3.767-1.34,5.148-2.852,11.49-12.574,22.981-25.149,34.471-37.723" style="fill: none; stroke: #e41e26; stroke-miterlimit: 10; stroke-width: 7px;"/>
</svg>