<?xml version="1.0" encoding="utf-8"?>
<!-- Generator: Adobe Illustrator 28.3.0, SVG Export Plug-In . SVG Version: 6.00 Build 0)  -->
<svg version="1.1" id="Layer_1" xmlns="http://www.w3.org/2000/svg" xmlns:xlink="http://www.w3.org/1999/xlink" x="0px" y="0px"
	 viewBox="0 0 183 163.9" style="enable-background:new 0 0 183 163.9;" xml:space="preserve">
<style type="text/css">
	.st0{fill:#1E1D1D;}
	.st1{fill:#E8E8EB;}
	.st2{fill:#E6E7E7;}
</style>
<g>
	<g>
		<path class="st0" d="M146,55.1c0,7.9,0.2,15.8,0,23.7c-0.5,16-13.2,30.5-29,33.3c-2.7,0.5-5.5,0.7-8.3,0.7c-11.8,0-23.7,0-35.5,0
			c-18.3,0-33.4-12.7-36.3-30.7c-0.4-2.1-0.5-4.4-0.5-6.6c0.1-12-0.1-24,0.1-35.9c0.2-14.1,6.5-24.8,18.7-32C60.8,4.3,66.9,3,73.4,3
			c13.9,0,27.8,0,41.7,0c12.6,0.1,22,5.6,27.9,16.8c2.3,4.4,3.1,9.1,3,14c0,7.1,0,14.1,0,21.2C146.1,55.1,146.1,55.1,146,55.1z"/>
		<path class="st1" d="M103.8,14.5c5.6,0,11.3,0,16.9,0c6.5,0,11.6,5.2,11.6,11.7c0,11.2,0,22.4,0,33.6c0,6.1-4.8,11.3-10.8,11.5
			c-11.9,0.3-23.8,0.4-35.7,0c-5.8-0.2-10.5-5.5-10.5-11.4c0-11.2,0-22.4,0-33.6c0-6.7,5.2-11.7,11.8-11.8
			C92.7,14.5,98.3,14.5,103.8,14.5z"/>
		<path class="st1" d="M136.2,75c0.5,14-9,25.5-22.3,27.7c-1.3,0.2-2.6,0.2-3.9,0.2c-12.2,0-24.3,0-36.5,0.1c-3.8,0-6.1-1.4-7.3-4.6
			c-1.1-3-0.2-5.7,2.2-7.8c1.2-1.1,2.3-2.4,3.6-3.5c4.2-3.7,9-5.6,14.6-5.6c10.7,0,21.5-0.1,32.2,0c6.2,0.1,11.7-1.6,16.3-5.7
			C135.5,75.5,135.7,75.3,136.2,75z"/>
		<path class="st1" d="M65.6,22.8c0,13.2,0,26.4-0.1,39.6c0,5.4-0.2,10.9-2.6,15.9c-1.2,2.5-3,4.5-5.1,6.2c-2.2,1.8-4.7,2.1-7.2,0.9
			c-2.6-1.2-3.8-3.4-4-6.2c-0.4-7.5-0.2-15-0.2-22.5c0-6.6-0.4-13.2,0.2-19.8c0.5-6.3,3.1-11.8,7.7-16.2c1.3-0.2,2.7-0.3,4-0.2
			c1.2,0.1,2.3-0.3,3.3-0.9c0.5-0.3,0.9-0.7,1.5-0.7c1.7,0.2,2.1-0.8,1.9-2.3c0-0.3-0.1-0.5-0.1-0.8c0-0.5-0.3-1.4,0.5-1.4
			s0.9,0.7,0.8,1.4c0.2-0.4,0.1-1.2,0.7-1.1c0.7,0.1,0.9,0.8,0.6,1.5s-0.5,1.3-0.8,2c-0.3,0.3-0.6,0.7-0.4,1.2
			c0.1,0.6-0.1,1.1-0.4,1.6C65.2,21.6,66.2,22.3,65.6,22.8z"/>
		<path class="st2" d="M67.5,16.4C67.4,16,67.3,15.7,67,15c-0.4,0.8-0.6,1.3-0.9,1.8c-0.5-0.6,0.2-1.6-0.9-2.1
			c0.1,0.9,0.1,1.8,0.3,2.6c0.5,1.7-0.9,2.4-1.8,2.2c-1.1-0.1-1.5,0.5-2.3,0.8c-2.3,1-4.8,0.9-7.3,0.3c4-4.3,9.2-6.5,15.1-7.6
			C68.9,14.4,68.4,15.6,67.5,16.4z"/>
		<path class="st2" d="M65.6,22.8c-0.1-0.5-0.2-1-0.3-1.5c0-0.2-0.2-0.5,0.2-0.5c0.2,0,0.3,0.2,0.4,0.4C66,21.7,66,22.3,65.6,22.8z"
			/>
		<path class="st2" d="M66.4,19.6c-0.4-0.3-0.5-0.7-0.3-1.2c0.1-0.3,0.4-0.1,0.6,0C66.8,18.9,66.6,19.3,66.4,19.6z"/>
	</g>
	<g>
		<g>
			<path class="st0" d="M94.2,60.5V21.7h5.7v38.8H94.2z M97.6,48.2l0.5-5.4c2.8,0,5.2-0.6,7.3-1.8c2-1.2,3.7-2.8,5-4.8
				s2.3-4.2,3-6.8c0.6-2.5,1-5.1,1-7.8h5.6c0,3.4-0.5,6.8-1.5,9.9c-1,3.2-2.5,6-4.4,8.5s-4.3,4.5-7,5.9
				C104.3,47.5,101.2,48.2,97.6,48.2z M115.2,60.5l-9.8-18.9l4.9-2.8l11.5,21.7H115.2z"/>
		</g>
	</g>

</g>
</svg>
