<?xml version="1.0" encoding="utf-8"?>
<!-- Generator: Adobe Illustrator 28.3.0, SVG Export Plug-In . SVG Version: 6.00 Build 0)  -->
<svg version="1.1" id="Layer_1" xmlns="http://www.w3.org/2000/svg" xmlns:xlink="http://www.w3.org/1999/xlink" x="0px" y="0px"
	 viewBox="0 0 281 116.9" style="enable-background:new 0 0 281 116.9;" xml:space="preserve">
<style type="text/css">
	.st0{fill:#1E1D1D;}
	.st1{fill:#E8E8EB;}
	.st2{fill:#E6E7E7;}
</style>
<g>
	<path class="st0" d="M117,55.1c0,7.9,0.2,15.8,0,23.7c-0.5,16-13.2,30.5-29,33.3c-2.7,0.5-5.5,0.7-8.3,0.7c-11.8,0-23.7,0-35.5,0
		c-18.3,0-33.4-12.7-36.3-30.7c-0.4-2.1-0.5-4.4-0.5-6.6c0.1-12-0.1-24,0.1-35.9c0.2-14.1,6.5-24.8,18.7-32C31.8,4.3,37.9,3,44.4,3
		c13.9,0,27.8,0,41.7,0c12.6,0.1,22,5.6,27.9,16.8c2.3,4.4,3.1,9.1,3,14c0,7.1,0,14.1,0,21.2C117.1,55.1,117.1,55.1,117,55.1z"/>
	<path class="st1" d="M74.8,14.5c5.6,0,11.3,0,16.9,0c6.5,0,11.6,5.2,11.6,11.7c0,11.2,0,22.4,0,33.6c0,6.1-4.8,11.3-10.8,11.5
		c-11.9,0.3-23.8,0.4-35.7,0c-5.8-0.2-10.5-5.5-10.5-11.4c0-11.2,0-22.4,0-33.6c0-6.7,5.2-11.7,11.8-11.8
		C63.7,14.5,69.3,14.5,74.8,14.5z"/>
	<path class="st1" d="M107.2,75c0.5,14-9,25.5-22.3,27.7c-1.3,0.2-2.6,0.2-3.9,0.2c-12.2,0-24.3,0-36.5,0.1c-3.8,0-6.1-1.4-7.3-4.6
		c-1.1-3-0.2-5.7,2.2-7.8c1.2-1.1,2.3-2.4,3.6-3.5c4.2-3.7,9-5.6,14.6-5.6c10.7,0,21.5-0.1,32.2,0c6.2,0.1,11.7-1.6,16.3-5.7
		C106.5,75.5,106.7,75.3,107.2,75z"/>
	<path class="st1" d="M36.6,22.8c0,13.2,0,26.4-0.1,39.6c0,5.4-0.2,10.9-2.6,15.9c-1.2,2.5-3,4.5-5.1,6.2c-2.2,1.8-4.7,2.1-7.2,0.9
		c-2.6-1.2-3.8-3.4-4-6.2c-0.4-7.5-0.2-15-0.2-22.5c0-6.6-0.4-13.2,0.2-19.8c0.5-6.3,3.1-11.8,7.7-16.2c1.3-0.2,2.7-0.3,4-0.2
		c1.2,0.1,2.3-0.3,3.3-0.9c0.5-0.3,0.9-0.7,1.5-0.7c1.7,0.2,2.1-0.8,1.9-2.3c0-0.3-0.1-0.5-0.1-0.8c0-0.5-0.3-1.4,0.5-1.4
		s0.9,0.7,0.8,1.4c0.2-0.4,0.1-1.2,0.7-1.1c0.7,0.1,0.9,0.8,0.6,1.5s-0.5,1.3-0.8,2c-0.3,0.3-0.6,0.7-0.4,1.2
		c0.1,0.6-0.1,1.1-0.4,1.6C36.2,21.6,37.2,22.3,36.6,22.8z"/>
	<path class="st2" d="M38.5,16.4C38.4,16,38.3,15.7,38,15c-0.4,0.8-0.6,1.3-0.9,1.8c-0.5-0.6,0.2-1.6-0.9-2.1
		c0.1,0.9,0.1,1.8,0.3,2.6c0.5,1.7-0.9,2.4-1.8,2.2c-1.1-0.1-1.5,0.5-2.3,0.8c-2.3,1-4.8,0.9-7.3,0.3c4-4.3,9.2-6.5,15.1-7.6
		C39.9,14.4,39.4,15.6,38.5,16.4z"/>
	<path class="st2" d="M36.6,22.8c-0.1-0.5-0.2-1-0.3-1.5c0-0.2-0.2-0.5,0.2-0.5c0.2,0,0.3,0.2,0.4,0.4C37,21.7,37,22.3,36.6,22.8z"
		/>
	<path class="st2" d="M37.4,19.6c-0.4-0.3-0.5-0.7-0.3-1.2c0.1-0.3,0.4-0.1,0.6,0C37.8,18.9,37.6,19.3,37.4,19.6z"/>
</g>
<g>
	<g>
		<path class="st0" d="M65.2,60.5V21.7h5.7v38.8H65.2z M68.6,48.2l0.5-5.4c2.8,0,5.2-0.6,7.3-1.8c2-1.2,3.7-2.8,5-4.8s2.3-4.2,3-6.8
			c0.6-2.5,1-5.1,1-7.8H91c0,3.4-0.5,6.8-1.5,9.9c-1,3.2-2.5,6-4.4,8.5s-4.3,4.5-7,5.9C75.3,47.5,72.2,48.2,68.6,48.2z M86.2,60.5
			l-9.8-18.9l4.9-2.8l11.5,21.7H86.2z"/>
	</g>
</g>
<path class="st0" d="M133.3,57.9c-3.3,0-5.9-0.9-7.7-2.6s-2.7-4.3-2.7-7.5s0.8-5.7,2.3-7.4c1.5-1.8,3.7-2.7,6.5-2.7
	c2.6,0,4.7,0.8,6.1,2.4s2.2,3.9,2.2,7c0,0.9,0,1.7-0.1,2.5h-13.7v-3h10.3c0-1.8-0.4-3.1-1.3-4c-0.8-0.9-2-1.4-3.5-1.4
	c-1.7,0-2.9,0.6-3.9,1.7c-0.9,1.1-1.4,2.7-1.4,4.8c0,2.3,0.6,4,1.9,5.2s3,1.8,5.4,1.8c0.8,0,1.6,0,2.4-0.1c0.8-0.1,1.6-0.2,2.4-0.4
	l0.5,3.4c-1.2,0.2-2.2,0.4-3.2,0.4C134.9,57.9,134.1,57.9,133.3,57.9z"/>
<path class="st0" d="M151.5,57.5L143.7,38h4l6.4,16.6h0.6v2.9H151.5z M144.1,66.4l-0.2-3.5l3.1-0.4c1.3-0.2,2.4-0.5,3.3-1
	s1.7-1.3,2.3-2.4s1.2-2.5,1.7-4.2l4.9-16.9h4l-5.6,17.8c-0.7,2.3-1.6,4.2-2.5,5.6s-2,2.5-3.2,3.2s-2.7,1.2-4.5,1.4L144.1,66.4z"/>
<path class="st0" d="M167.8,57.5V29.9h3.9v27.3L167.8,57.5z M173,57.9c-0.9,0-1.8,0-2.6-0.1c-0.9-0.1-1.7-0.2-2.6-0.3l1.5-3.6
	c0.7,0.3,1.4,0.5,2.2,0.5c0.8,0.1,1.6,0.1,2.3,0.1c2.3,0,4.2-0.7,5.4-2.1c1.3-1.4,1.9-3.4,1.9-6c0-1.8-0.4-3.1-1.2-4.1
	c-0.8-1-1.9-1.4-3.3-1.4c-3.3,0-5,1.9-5,5.6l-1.1-5h1.5c0.2-2.6,1.8-3.9,4.8-3.9c2.6,0,4.6,0.8,6,2.3s2.1,3.7,2.1,6.5
	c0,3.6-1,6.4-3.1,8.4C179.8,56.9,176.8,57.9,173,57.9z"/>
<path class="st0" d="M197.9,57.9c-2.7,0-4.8-0.9-6.3-2.7c-1.5-1.8-2.2-4.3-2.2-7.5s0.7-5.7,2.2-7.5s3.6-2.6,6.3-2.6
	c2.7,0,4.8,0.9,6.3,2.6s2.2,4.3,2.2,7.5s-0.7,5.7-2.2,7.5S200.6,57.9,197.9,57.9z M197.9,54.4c1.4,0,2.5-0.6,3.3-1.7
	c0.8-1.2,1.2-2.8,1.2-4.9s-0.4-3.8-1.2-4.9s-1.9-1.7-3.3-1.7s-2.5,0.6-3.3,1.7s-1.2,2.8-1.2,4.9s0.4,3.7,1.2,4.9
	C195.4,53.8,196.5,54.4,197.9,54.4z"/>
<path class="st0" d="M217.1,57.9c-2,0-3.6-0.5-4.7-1.5s-1.7-2.4-1.7-4.2c0-2.1,0.8-3.6,2.3-4.7s3.7-1.7,6.5-1.7
	c1.2,0,2.2,0.1,3.1,0.2s1.7,0.4,2.4,0.6l-0.8,2.7c-0.8-0.2-1.6-0.3-2.4-0.3s-1.6,0-2.4,0c-3.4,0-5.1,1-5.1,3.1c0,0.9,0.3,1.5,0.9,2
	s1.4,0.7,2.5,0.7c1.2,0,2.2-0.2,3-0.6s1.4-1,1.8-1.6c0.4-0.7,0.6-1.3,0.6-2v-2.1l1.1,5h-1.5l0.6-0.6c0,1.1-0.3,2.1-0.8,2.8
	c-0.5,0.8-1.3,1.3-2.2,1.7C219.5,57.7,218.4,57.9,217.1,57.9z M224,57.7l-0.3-5.8l-0.5-1.6v-5c0-1.3-0.5-2.3-1.4-2.9s-2.3-0.9-4.1-1
	l-4.7-0.1l0.4-3.5l3.9,0.1c3.2,0,5.6,0.7,7.2,2.1c1.6,1.3,2.3,3.3,2.3,5.9V54l3.3,0.4v3.1L224,57.7z"/>
<path class="st0" d="M232.5,57.5v-3.4h13v3.4H232.5z M233.2,41.4V38h6.5l0.4,3.4H233.2z M236.9,57.5V38h3.2l0.7,5.6v13.9H236.9z
	 M240.8,49.1l-1.1-6.1h1.5c0.2-3.6,2-5.4,5.4-5.4c2,0,3.5,0.6,4.4,1.7c0.9,1.2,1.4,3,1.4,5.6h-3.9c0-1.4-0.2-2.4-0.6-3.1
	c-0.4-0.6-1.1-0.9-2.1-0.9c-1.7,0-2.9,0.7-3.7,2.1S240.8,46.5,240.8,49.1z"/>
<path class="st0" d="M262.8,57.9c-2.6,0-4.5-0.8-5.8-2.5c-1.3-1.7-2-4.2-2-7.4c0-3.4,0.7-6,2-7.7c1.3-1.7,3.3-2.6,5.8-2.6
	c1.5,0,2.6,0.3,3.6,1s1.5,1.6,1.6,2.9h1.5l-1.1,5.6c0-2-0.4-3.5-1.2-4.6c-0.8-1-2-1.6-3.5-1.6c-1.6,0-2.8,0.6-3.6,1.8
	c-0.8,1.2-1.2,2.9-1.2,5.2c0,2.2,0.4,3.8,1.2,5c0.8,1.1,2,1.7,3.6,1.7c1.5,0,2.7-0.5,3.5-1.6c0.8-1,1.2-2.6,1.2-4.6l1.3,5.6h-1.7
	c-0.1,1.2-0.6,2.2-1.6,2.9C265.5,57.5,264.2,57.9,262.8,57.9z M268.6,57.7l-0.4-3.8v-24h3.9v27.6L268.6,57.7z"/>
</svg>
