<?xml version="1.0" encoding="utf-8"?>
<!-- Generator: Adobe Illustrator 28.3.0, SVG Export Plug-In . SVG Version: 6.00 Build 0)  -->
<svg version="1.1" id="Layer_1" xmlns="http://www.w3.org/2000/svg" xmlns:xlink="http://www.w3.org/1999/xlink" x="0px" y="0px"
	 viewBox="0 0 175.3 162.9" style="enable-background:new 0 0 175.3 162.9;" xml:space="preserve">
<style type="text/css">
	.st0{fill:#1E1D1D;}
	.st1{fill:#E8E8EB;}
	.st2{fill:#E6E7E7;}
</style>
<g>
	<g>
		<path class="st0" d="M142,58.1c0,7.9,0.2,15.8,0,23.7c-0.5,16-13.2,30.5-29,33.3c-2.7,0.5-5.5,0.7-8.3,0.7c-11.8,0-23.7,0-35.5,0
			c-18.3,0-33.4-12.7-36.3-30.7c-0.4-2.1-0.5-4.4-0.5-6.6c0.1-12-0.1-24,0.1-35.9c0.2-14.1,6.5-24.8,18.7-32C56.8,7.3,63,6,69.4,6
			c13.9,0,27.8,0,41.7,0c12.6,0.1,22,5.6,27.9,16.8c2.3,4.4,3.1,9.1,3,14c0,7.1,0,14.1,0,21.2C142.1,58.1,142.1,58.1,142,58.1z"/>
		<path class="st1" d="M99.8,17.5c5.6,0,11.3,0,16.9,0c6.5,0,11.6,5.2,11.6,11.7c0,11.2,0,22.4,0,33.6c0,6.1-4.8,11.3-10.8,11.5
			c-11.9,0.3-23.8,0.4-35.7,0C76,74,71.3,68.7,71.3,62.8c0-11.2,0-22.4,0-33.6c0-6.7,5.2-11.7,11.8-11.8
			C88.7,17.5,94.3,17.5,99.8,17.5z"/>
		<path class="st1" d="M132.2,78c0.5,14-9,25.5-22.3,27.7c-1.3,0.2-2.6,0.2-3.9,0.2c-12.2,0-24.3,0-36.5,0.1c-3.8,0-6.1-1.4-7.3-4.6
			c-1.1-3-0.2-5.7,2.2-7.8c1.2-1.1,2.3-2.4,3.6-3.5c4.2-3.7,9-5.6,14.6-5.6c10.7,0,21.5-0.1,32.2,0c6.2,0.1,11.7-1.6,16.3-5.7
			C131.5,78.4,131.7,78.3,132.2,78z"/>
		<path class="st1" d="M61.6,25.7c0,13.2,0,26.4-0.1,39.6c0,5.4-0.2,10.9-2.6,15.9c-1.2,2.5-3,4.5-5.1,6.2c-2.2,1.8-4.7,2.1-7.2,0.9
			c-2.6-1.2-3.8-3.4-4-6.2c-0.4-7.5-0.2-15-0.2-22.5c0-6.6-0.4-13.2,0.2-19.8c0.5-6.3,3.1-11.8,7.7-16.2c1.3-0.2,2.7-0.3,4-0.2
			c1.2,0.1,2.3-0.3,3.3-0.9c0.5-0.3,0.9-0.7,1.5-0.7c1.7,0.2,2.1-0.8,1.9-2.3c0-0.3-0.1-0.5-0.1-0.8c0-0.5-0.3-1.4,0.5-1.4
			c0.8,0,0.9,0.7,0.8,1.4c0.2-0.4,0.1-1.2,0.7-1.1c0.7,0.1,0.9,0.8,0.6,1.5c-0.3,0.7-0.5,1.3-0.8,2c-0.3,0.3-0.6,0.7-0.4,1.2
			c0.1,0.6-0.1,1.1-0.4,1.6C61.2,24.5,62.2,25.3,61.6,25.7z"/>
		<path class="st2" d="M63.5,19.4c-0.1-0.4-0.2-0.7-0.5-1.4c-0.4,0.8-0.6,1.3-0.9,1.8c-0.5-0.6,0.2-1.6-0.9-2.1
			c0.1,0.9,0.1,1.8,0.3,2.6c0.5,1.7-0.9,2.4-1.8,2.2c-1.1-0.1-1.5,0.5-2.3,0.8c-2.3,1-4.8,0.9-7.3,0.3c4-4.3,9.2-6.5,15.1-7.6
			C64.9,17.4,64.4,18.5,63.5,19.4z"/>
		<path class="st2" d="M61.6,25.7c-0.1-0.5-0.2-1-0.3-1.5c0-0.2-0.2-0.5,0.2-0.5c0.2,0,0.3,0.2,0.4,0.4C62,24.7,62,25.3,61.6,25.7z"
			/>
		<path class="st2" d="M62.4,22.6c-0.4-0.3-0.5-0.7-0.3-1.2c0.1-0.3,0.4-0.1,0.6,0C62.8,21.9,62.6,22.2,62.4,22.6z"/>
	</g>
	<g>
		<g>
			<path class="st0" d="M90.2,63.5V24.7h5.7v38.8H90.2z M93.6,51.1l0.5-5.4c2.8,0,5.2-0.6,7.3-1.8c2-1.2,3.7-2.8,5-4.8
				c1.3-2,2.3-4.2,3-6.8c0.6-2.5,1-5.1,1-7.8h5.6c0,3.4-0.5,6.8-1.5,9.9c-1,3.2-2.5,6-4.4,8.5s-4.3,4.5-7,5.9
				C100.3,50.4,97.2,51.1,93.6,51.1z M111.2,63.5l-9.8-18.9l4.9-2.8l11.5,21.7H111.2z"/>
		</g>
	</g>
	<g>
		<path class="st0" d="M3.2,156v-27.6h3.9V156H3.2z M6,148.6v-3.5h2.2c1.6,0,3-0.3,4-0.8c1-0.6,1.9-1.5,2.5-2.7s1-2.9,1.3-5h4
			c-0.5,4.1-1.7,7.1-3.5,9.1c-1.8,2-4.3,3-7.4,3H6z M16.5,156l-5.6-9.5l3.7-1.5l6.7,11H16.5z"/>
		<path class="st0" d="M35.1,156.3c-3.3,0-5.9-0.9-7.7-2.6c-1.8-1.7-2.7-4.3-2.7-7.5c0-3.2,0.8-5.7,2.3-7.4c1.5-1.8,3.7-2.7,6.5-2.7
			c2.6,0,4.7,0.8,6.1,2.4s2.2,3.9,2.2,7c0,0.9,0,1.7-0.1,2.5H28v-3h10.3c0-1.8-0.4-3.1-1.3-4c-0.8-0.9-2-1.4-3.5-1.4
			c-1.7,0-2.9,0.6-3.9,1.7c-0.9,1.1-1.4,2.7-1.4,4.8c0,2.3,0.6,4,1.9,5.2s3,1.8,5.4,1.8c0.8,0,1.6,0,2.4-0.1
			c0.8-0.1,1.6-0.2,2.4-0.4l0.5,3.4c-1.2,0.2-2.2,0.4-3.2,0.4C36.7,156.3,35.9,156.3,35.1,156.3z"/>
		<path class="st0" d="M53.3,156l-7.8-19.5h4l6.4,16.6h0.6v2.9H53.3z M45.9,164.8l-0.2-3.5l3.1-0.4c1.3-0.2,2.4-0.5,3.3-1
			c0.9-0.5,1.7-1.3,2.3-2.4s1.2-2.5,1.7-4.2l4.9-16.9h4l-5.6,17.8c-0.7,2.3-1.6,4.2-2.5,5.6c-0.9,1.4-2,2.5-3.2,3.2
			c-1.2,0.7-2.7,1.2-4.5,1.4L45.9,164.8z"/>
		<path class="st0" d="M69.6,156v-27.6h3.9v27.3L69.6,156z M74.8,156.3c-0.9,0-1.8,0-2.6-0.1c-0.9-0.1-1.7-0.2-2.6-0.3l1.5-3.6
			c0.7,0.3,1.4,0.5,2.2,0.5c0.8,0.1,1.6,0.1,2.3,0.1c2.3,0,4.2-0.7,5.4-2.1c1.3-1.4,1.9-3.4,1.9-6c0-1.8-0.4-3.1-1.2-4.1
			c-0.8-1-1.9-1.4-3.3-1.4c-3.3,0-5,1.9-5,5.6l-1.1-5h1.5c0.2-2.6,1.8-3.9,4.8-3.9c2.6,0,4.6,0.8,6,2.3c1.4,1.5,2.1,3.7,2.1,6.5
			c0,3.6-1,6.4-3.1,8.4C81.6,155.3,78.6,156.3,74.8,156.3z"/>
		<path class="st0" d="M99.7,156.3c-2.7,0-4.8-0.9-6.3-2.7c-1.5-1.8-2.2-4.3-2.2-7.5c0-3.2,0.7-5.7,2.2-7.5c1.5-1.8,3.6-2.6,6.3-2.6
			c2.7,0,4.8,0.9,6.3,2.6s2.2,4.3,2.2,7.5c0,3.2-0.7,5.7-2.2,7.5S102.4,156.3,99.7,156.3z M99.7,152.8c1.4,0,2.5-0.6,3.3-1.7
			c0.8-1.2,1.2-2.8,1.2-4.9c0-2.1-0.4-3.8-1.2-4.9s-1.9-1.7-3.3-1.7c-1.4,0-2.5,0.6-3.3,1.7s-1.2,2.8-1.2,4.9c0,2.1,0.4,3.7,1.2,4.9
			C97.2,152.3,98.3,152.8,99.7,152.8z"/>
		<path class="st0" d="M118.9,156.3c-2,0-3.6-0.5-4.7-1.5c-1.1-1-1.7-2.4-1.7-4.2c0-2.1,0.8-3.6,2.3-4.7c1.5-1.1,3.7-1.7,6.5-1.7
			c1.2,0,2.2,0.1,3.1,0.2s1.7,0.4,2.4,0.6l-0.8,2.7c-0.8-0.2-1.6-0.3-2.4-0.3s-1.6,0-2.4,0c-3.4,0-5.1,1-5.1,3.1
			c0,0.9,0.3,1.5,0.9,2c0.6,0.5,1.4,0.7,2.5,0.7c1.2,0,2.2-0.2,3-0.6c0.8-0.4,1.4-1,1.8-1.6c0.4-0.7,0.6-1.3,0.6-2v-2.1l1.1,5h-1.5
			l0.6-0.6c0,1.1-0.3,2.1-0.8,2.8c-0.5,0.8-1.3,1.3-2.2,1.7C121.3,156.2,120.2,156.3,118.9,156.3z M125.8,156.2l-0.3-5.8l-0.5-1.6
			v-5c0-1.3-0.5-2.3-1.4-2.9s-2.3-0.9-4.1-1l-4.7-0.1l0.4-3.5l3.9,0.1c3.2,0,5.6,0.7,7.2,2.1c1.6,1.3,2.3,3.3,2.3,5.9v8.1l3.3,0.4
			v3.1L125.8,156.2z"/>
		<path class="st0" d="M134.3,156v-3.4h13v3.4H134.3z M135,139.9v-3.4h6.5l0.4,3.4H135z M138.7,156v-19.5h3.2l0.7,5.6V156H138.7z
			 M142.6,147.6l-1.1-6.1h1.5c0.2-3.6,2-5.4,5.4-5.4c2,0,3.5,0.6,4.4,1.7c0.9,1.2,1.4,3,1.4,5.6h-3.9c0-1.4-0.2-2.4-0.6-3.1
			c-0.4-0.6-1.1-0.9-2.1-0.9c-1.7,0-2.9,0.7-3.7,2.1S142.6,145,142.6,147.6z"/>
		<path class="st0" d="M164.5,156.3c-2.6,0-4.5-0.8-5.8-2.5c-1.3-1.7-2-4.2-2-7.4c0-3.4,0.7-6,2-7.7s3.3-2.6,5.8-2.6
			c1.5,0,2.6,0.3,3.6,1s1.5,1.6,1.6,2.9h1.5l-1.1,5.6c0-2-0.4-3.5-1.2-4.6c-0.8-1-2-1.6-3.5-1.6c-1.6,0-2.8,0.6-3.6,1.8
			c-0.8,1.2-1.2,2.9-1.2,5.2c0,2.2,0.4,3.8,1.2,5c0.8,1.1,2,1.7,3.6,1.7c1.5,0,2.7-0.5,3.5-1.6c0.8-1,1.2-2.6,1.2-4.6l1.3,5.6h-1.7
			c-0.1,1.2-0.6,2.2-1.6,2.9C167.2,156,166,156.3,164.5,156.3z M170.4,156.2l-0.4-3.8v-24h3.9V156L170.4,156.2z"/>
	</g>
</g>
</svg>
