<?xml version="1.0" encoding="UTF-8"?>
<svg id="Layer_1" data-name="Layer 1" xmlns="http://www.w3.org/2000/svg" width="206.715" height="143.929" viewBox="0 0 206.715 143.929">
  <path d="M39.163,16.383h77.02c11.253,0,20.389,9.136,20.389,20.389v87.604H32.154c-7.385,0-13.381-5.996-13.381-13.381V36.772c0-11.253,9.136-20.389,20.389-20.389Z" style="fill: none; stroke: #e41e26; stroke-miterlimit: 10; stroke-width: 7px;"/>
  <path d="M194.581,124.257h-58.009V40.053h41.124c11.818,0,21.398,13.33,21.398,29.774.223,11.32.446,22.64.669,33.961,4.606,3.183,6.134,10.781,4.012,15.817-1.669,3.962-5.465,6.025-9.194,4.652Z" style="fill: none; stroke: #e41e26; stroke-miterlimit: 10; stroke-width: 7px;"/>
  <circle cx="65.357" cy="124.376" r="17.553" style="fill: #fff; stroke: #e41e26; stroke-miterlimit: 10; stroke-width: 7px;"/>
  <circle cx="155.964" cy="124.376" r="17.553" style="fill: #fff; stroke: #e41e26; stroke-miterlimit: 10; stroke-width: 7px;"/>
  <rect x="2.5" y="62.188" width="62.857" height="13.708" style="fill: #e41e26; stroke: #fff; stroke-miterlimit: 10; stroke-width: 7px;"/>
  <rect x="6.846" y="79.574" width="47.733" height="10.41" style="fill: #e41e26; stroke: #fff; stroke-miterlimit: 10; stroke-width: 7px;"/>
</svg>