<?xml version="1.0" encoding="UTF-8"?>
<svg id="Layer_1" data-name="Layer 1" xmlns="http://www.w3.org/2000/svg" width="193.5" height="162.064" viewBox="0 0 193.5 162.064">
  <rect x="2.5" y="41.564" width="176" height="118" rx="16.271" ry="16.271" style="fill: none; stroke: #e41e26; stroke-miterlimit: 10; stroke-width: 7px;"/>
  <path d="M104,36.064c13.65-11.183,25.547-20.704,35.6-28.767,2.53-2.029,7.166-5.749,11.833-4.571,3.651.921,5.681,4.426,9.287,11.717,2.836,5.734,6.428,13.365,10.28,22.621" style="fill: none; stroke: #e41e26; stroke-miterlimit: 10; stroke-width: 7px;"/>
  <rect x="125" y="83.064" width="66" height="34" rx="15.765" ry="15.765" style="fill: #fff; stroke: #e41e26; stroke-miterlimit: 10; stroke-width: 7px;"/>
  <circle cx="171" cy="101.064" r="7" style="fill: #e32027; stroke: #e41e26; stroke-miterlimit: 10; stroke-width: 7px;"/>
  <path d="M9.602,123.358h0c-.041.15-.914,3.124-.918,7.283,0,2.259.261,4.875,1.098,7.568.627,2.018,1.584,4.08,2.997,6.025,2.114,2.922,5.262,5.545,9.638,7.373,4.379,1.834,9.964,2.905,17.095,2.906,3.812,0,8.07-.307,12.836-.974,0,0-9.291-4.026-12.836-4.026-5.896,0-10.44-.792-13.909-2.032-2.604-.931-4.607-2.108-6.175-3.413-2.346-1.96-3.747-4.221-4.607-6.563" style="fill: #e41e26; stroke-width: 0px;"/>
</svg>