<?xml version="1.0" encoding="utf-8"?>
<!-- Generator: Adobe Illustrator 28.3.0, SVG Export Plug-In . SVG Version: 6.00 Build 0)  -->
<svg version="1.1" id="Layer_1" xmlns="http://www.w3.org/2000/svg" xmlns:xlink="http://www.w3.org/1999/xlink" x="0px" y="0px"
	 viewBox="0 0 183.3 256.4" style="enable-background:new 0 0 183.3 256.4;" xml:space="preserve">
<style type="text/css">
	.st0{stroke:#ffff;fill:#ffff;stroke-miterlimit:10;}
</style>
<path class="st0" d="M142.5,99.3"/>
<path class="st0" d="M153.3,72.6c-1.9,5.6-4.8,14.3-8.5,25.4c-1.7,5-2.5,7.6-2.3,9.3c1,7.8,9.5,9.8,19.7,23.3
	c3.5,4.7,4.5,7.4,4.1,10.3c-0.5,3.8-4.3,7.2-8,6.2c-2.1-0.6-3.5-2.3-4.9-4c-5.1-6.1-10.2-12.3-15.2-18.4
	c-4.7-5.7-10.5-11.9-17.9-11.4c-7.7,0.4-12.9,8-16.6,14.8c-4.6,8.6-9,17.5-10.7,27.1c-1.7,9.6-0.7,20.1,4.8,28.1
	c5.5,8.1,15.9,13.1,25.3,10.5c-3.1,5.6-9.6,15.5-21.3,23.5c-6.5,4.4-17.1,11.7-32.1,11.2c-2.4-0.1-23.2-0.8-30-13.1
	c-2-3.5-3.2-6.6-6.7-10.9c-2.7-3.3-7.8-5.5-11.1-2.9c-3,2.4-2.7,7-1.7,10.8c3.8,14.5,25.8,42.5,58.1,42.9
	c41.2,0.4,61.6-44.1,63.1-49.7c0.6-2.5,1-5,1-5c0.7-5.2,0.4-9.5,0-12.4c6.7-3.6,22.5-13.1,32.3-32.3c2.2-4.4,7.5-15,7.7-28.7
	C183,96.2,157.2,75.6,153.3,72.6z"/>
<path class="st0" d="M44.6,157c0.6-9.3,1.4-19.1,6.2-27.1s15.1-13.6,23.7-10c8.5,3.5,11.7,13.8,12.8,23c1.5,13.1,0.4,26.5-3.1,39.2
	c-1.6,5.9-3.9,12-8.7,15.9s-12.4,4.8-16.7,0.5c-4.2-4.3-5-12.7-11-13.5c-5.9-0.8-8.7,7.1-13.2,11c-6,5.3-16.1,2.9-21.6-3
	s-7.4-14.2-8.7-22.1c-6.7-40-3.3-81.6,9.9-119.9c4-11.6,8.9-23,16.8-32.4S49.9,2,62.1,1.1s25.2,5.5,30.1,16.7
	c-2.9,4.3-9.5,27.4-8.9,33.9c-6.3-3.9-12.8-7.9-19.9-10.1c-7.2-2.2-15.2-2.3-21.8,1.3c-6.7,3.6-10.9,10.5-14.1,17.4
	c-12.1,26.1-14,56.8-5,84.1c1.7,5.1,3.9,10.4,8.4,13.4C35.3,160.9,44.2,162.3,44.6,157z"/>
<path class="st0" d="M122.4,51.3c-15.3,20.3-43.9,29.5-68.3,22c-8.4-2.6-17.1-8.2-18.2-16.9c-4,5.3-8.1,10.6-10.6,16.7
	s-3.4,13.2-0.9,19.3c3.7,8.9,13.6,13.7,23,15.8c17.7,4,36.8,1.3,52.8-7.4s28.5-23.4,34.7-40.5c3.5-9.7,4.9-20.4,1.7-30.2
	s-11.9-18.1-22.2-18.7c-1.7,9.2-5.8,20.5-5.6,29.8c0.1,3.9-0.3,4.3,2.8,6.8C112.5,48.8,121.9,51.8,122.4,51.3z"/>
<path class="st0" d="M149.5,117.3"/>
<path class="st0" d="M190.9,317.2"/>
</svg>
