<?xml version="1.0" encoding="UTF-8"?>
<svg id="Layer_1" data-name="Layer 1" xmlns="http://www.w3.org/2000/svg" width="295" height="550" xmlns:xlink="http://www.w3.org/1999/xlink" viewBox="0 0 295 550">
  <rect x=".5" y=".5" width="294" height="549" style="fill: #010101; stroke: #fff; stroke-miterlimit: 10;"/>
  <image width="640" height="480" transform="translate(1 261.155) rotate(-4.749) scale(.418)" xlink:href="../../../../../../Downloads/computer-mouse-computer-keyboard-pack-gaming-tacens-macp1-usb-black-red-input-devices-raton-mars-gaming-mm216-iso-216-714aaa7f5430d6858e47d27786469447.png"/>
  <g>
    <path d="M31.336,90.716v9.868h5.986c1.553,0,2.591-.214,3.113-.644.375-.294.656-.692.844-1.194.107-.269.188-.545.241-.827.053-.282.08-.6.08-.956h.743v8.673h-.743c-.188-1.225-.375-2.003-.562-2.333-.241-.404-.643-.735-1.205-.993s-1.399-.386-2.511-.386h-5.986v8.228c0,1.104.047,1.779.141,2.025.107.221.298.405.573.552.274.147.787.221,1.537.221h4.62c1.486,0,2.578-.092,3.274-.277.696-.184,1.393-.578,2.089-1.181.803-.737,1.653-1.887,2.551-3.449h.803l-2.35,6.267h-20.99v-.68h.964c.656,0,1.266-.141,1.828-.423.401-.184.686-.484.854-.902.167-.417.251-1.215.251-2.393v-16.215c0-1.595-.174-2.57-.522-2.926-.496-.491-1.299-.736-2.411-.736h-.964v-.68h20.99l.301,5.458h-.783c-.134-.649-.281-1.207-.442-1.672-.161-.466-.328-.809-.502-1.029-.309-.429-.811-.802-1.507-1.121-.522-.184-1.466-.275-2.832-.275h-7.472Z" style="fill: #fff; stroke-width: 0px;"/>
    <path d="M54.516,100.529c2.156-2.377,4.211-3.565,6.167-3.565.991,0,1.841.221,2.551.662.71.442,1.299,1.208,1.768,2.299.294.847.442,1.975.442,3.385v7.193c0,1.116.094,1.84.281,2.171.147.307.385.546.713.717.328.172.934.258,1.818.258v.662h-9.099v-.662h.384c.85,0,1.45-.12,1.8-.359.35-.239.593-.592.728-1.058l.061-.534v-8.096c0-1.484-.218-2.585-.653-3.303-.436-.717-1.168-1.076-2.199-1.076-1.594,0-3.181.797-4.761,2.392v8.887c0,1.116.081,1.831.241,2.144s.408.567.743.764c.388.16,1.058.239,2.009.239v.662h-9.099v-.662h.408c.937,0,1.576-.214,1.916-.644.163-.208.285-.527.367-.957l.102-.699v-7.103c0-2.135-.054-3.367-.161-3.699-.081-.441-.231-.742-.452-.901-.221-.16-.499-.239-.833-.239-.308,0-.757.092-1.346.276l-.301-.662,5.543-2.058h.864v3.565Z" style="fill: #fff; stroke-width: 0px;"/>
    <path d="M76.108,96.964v16.943c0,2.867-.666,5.001-1.999,6.404s-3.077,2.104-5.232,2.104c-1.165,0-2.055-.202-2.671-.606-.616-.404-.924-.821-.924-1.25s.168-.796.504-1.103c.337-.306.721-.459,1.151-.459.35,0,.707.08,1.07.239.229.073.669.379,1.323.918.653.539,1.201.809,1.646.809.323,0,.626-.107.909-.321.283-.215.525-.604.727-1.167l.081-.606.081-.625.021-1.212v-12.992c0-1.899-.054-3.05-.161-3.455-.081-.49-.235-.802-.462-.938-.214-.159-.489-.239-.823-.239-.308,0-.763.092-1.366.276l-.281-.662,5.543-2.058h.864ZM74.38,88.162c.522,0,.998.187,1.426.56.428.374.643.818.643,1.333s-.201.956-.603,1.323c-.401.367-.891.551-1.466.551-.562,0-1.044-.184-1.446-.551-.402-.368-.603-.809-.603-1.323,0-.465.201-.897.603-1.295.401-.398.884-.597,1.446-.597Z" style="fill: #fff; stroke-width: 0px;"/>
    <path d="M90.148,96.964c2.772,0,5.008.967,6.708,2.9,1.433,1.665,2.149,3.561,2.149,5.69,0,.404-.02.787-.06,1.147-.041.361-.114.744-.221,1.147-.174.71-.476,1.475-.904,2.295-.763,1.53-1.858,2.686-3.284,3.469-1.426.783-2.962,1.175-4.61,1.175-2.718,0-4.921-1.009-6.608-3.029-1.379-1.701-2.069-3.61-2.069-5.728,0-1.566.418-3.093,1.255-4.58s1.945-2.606,3.325-3.359c1.379-.752,2.818-1.129,4.318-1.129ZM89.526,98.159c-.71,0-1.42.187-2.129.56-.71.373-1.289,1.04-1.737,2-.449.961-.673,2.218-.673,3.772,0,2.447.532,4.558,1.597,6.333s2.467,2.661,4.208,2.661c1.286,0,2.354-.492,3.204-1.478.85-.985,1.275-2.664,1.275-5.038,0-2.973-.703-5.323-2.109-7.048-.951-1.175-2.163-1.762-3.635-1.762Z" style="fill: #fff; stroke-width: 0px;"/>
    <path d="M100.674,97.46h8.577v.68h-.422c-.603,0-1.055.12-1.356.358-.301.239-.452.536-.452.891,0,.478.223,1.139.669,1.983l4.461,8.486,4.124-9.294c.231-.526.347-1.022.347-1.487,0-.232-.043-.401-.13-.505-.087-.104-.261-.202-.522-.294-.261-.092-.66-.138-1.195-.138v-.68h5.986v.68c-.429,0-.81.098-1.145.294-.174.098-.469.374-.884.827-.12.147-.348.619-.683,1.415l-7.492,16.795c-.723,1.629-1.674,2.86-2.853,3.694-1.178.833-2.303,1.25-3.374,1.25-.79,0-1.439-.205-1.948-.615-.509-.411-.763-.892-.763-1.443,0-.465.181-.882.542-1.25.375-.306.884-.459,1.526-.459.455,0,1.058.135,1.808.404.522.184.857.276,1.004.276.402,0,.84-.187,1.316-.561.475-.374.954-1.112,1.436-2.214l1.306-2.922-6.608-12.698c-.107-.221-.429-.692-.964-1.415-.334-.417-.626-.71-.874-.882-.248-.171-.727-.336-1.436-.496v-.68Z" style="fill: #fff; stroke-width: 0px;"/>
  </g>
  <g>
    <path d="M108.942,141.663l-11.05,34.916h-9.853l-4.571-18.917-4.773,18.917h-9.75l-11.261-34.916h13.457l4.609,17.095,4.391-17.095h10.133l4.329,17.083,4.833-17.083h9.507Z" style="fill: #fff; stroke-width: 0px;"/>
    <path d="M126.726,128.239v10.849h-13.698v-10.849h13.698ZM126.726,141.663v34.916h-13.698v-34.916h13.698Z" style="fill: #fff; stroke-width: 0px;"/>
    <path d="M155.496,141.663v8.892h-6.969v12.875c0,1.763.332,2.81.996,3.141.664.332,1.351.498,2.06.498,1.099,0,2.404-.194,3.914-.584v9.75c-2.701.526-5.355.79-7.965.79-4.211,0-7.307-.904-9.287-2.712-1.98-1.808-2.97-4.691-2.97-8.651l.034-4.085v-11.021h-5.218v-8.892h5.218l.206-11.364,13.012-.206v11.57h6.969Z" style="fill: #fff; stroke-width: 0px;"/>
    <path d="M194.359,176.578h-13.697v-21.011c0-1.922-.211-3.244-.633-3.965-.422-.721-1.234-1.082-2.441-1.082-.935,0-1.749.281-2.443.841-.695.561-1.1,1.139-1.213,1.734s-.171,1.842-.171,3.742v19.741h-13.698v-46.863h13.698v16.067c2.472-3.227,5.699-4.841,9.682-4.841,2.014,0,3.782.349,5.304,1.047,1.523.698,2.695,1.596,3.52,2.695s1.379,2.163,1.666,3.193c.285,1.03.428,3.021.428,5.974v22.728Z" style="fill: #fff; stroke-width: 0px;"/>
  </g>
  <g style="opacity: .13;">
    <g>
      <path d="M115.451,224.941h-11.322v-18.607c0-1.248-.181-2.121-.542-2.618-.361-.498-1-.746-1.916-.746-2.185,0-3.277,1.59-3.277,4.769v17.203h-11.206v-18.607c0-2.379-.917-3.569-2.75-3.569-1.892,0-2.838,1.19-2.838,3.569v18.607h-11.235v-29.754h10.474v4.008c1.873-3.082,4.593-4.623,8.163-4.623,3.842,0,6.631,1.541,8.368,4.623,1.931-3.082,4.896-4.623,8.894-4.623,1.911,0,3.593.4,5.047,1.2,1.453.8,2.506,1.829,3.16,3.086.653,1.258.98,3.204.98,5.837v20.246Z" style="fill: #fff; stroke-width: 0px;"/>
      <path d="M136.165,225.555c-4.935,0-8.855-1.536-11.761-4.608-2.907-3.072-4.359-6.675-4.359-10.811,0-4.447,1.516-8.152,4.549-11.117,3.033-2.965,6.978-4.447,11.834-4.447,4.896,0,8.83,1.463,11.805,4.389s4.463,6.593,4.463,11c0,4.447-1.508,8.158-4.521,11.132-3.012,2.975-7.016,4.461-12.009,4.461ZM136.34,218.475c1.814,0,2.922-.941,3.32-2.823.4-1.882.602-3.847.602-5.895,0-2.789-.283-4.798-.85-6.027-.566-1.229-1.58-1.843-3.043-1.843-1.345,0-2.331.634-2.955,1.901-.625,1.268-.936,3.355-.936,6.261,0,3.413.322,5.671.965,6.773s1.609,1.653,2.896,1.653Z" style="fill: #fff; stroke-width: 0px;"/>
      <path d="M186.165,195.187v29.754h-10.796v-4.886c-1.58,3.667-4.662,5.5-9.245,5.5-2.828,0-5.018-.785-6.568-2.355-1.55-1.57-2.325-3.818-2.325-6.744v-21.27h11.673v18.725c0,1.17.161,1.995.483,2.472.321.478.95.717,1.887.717.995,0,1.804-.355,2.429-1.068.624-.712.936-1.711.936-2.999v-17.847h11.527Z" style="fill: #fff; stroke-width: 0px;"/>
      <path d="M189.676,216.515l9.216-1.258c.527,2.146,2.614,3.218,6.262,3.218,3.022,0,4.534-.585,4.534-1.755,0-.507-.292-.902-.877-1.185-.586-.282-1.971-.57-4.155-.863-6.046-.839-9.82-2.15-11.322-3.935s-2.253-3.769-2.253-5.954c0-3.043,1.268-5.505,3.804-7.387,2.535-1.882,5.861-2.823,9.977-2.823,7.217,0,11.82,2.604,13.81,7.812l-8.836,1.668c-.819-1.756-2.545-2.633-5.179-2.633-1.248,0-2.18.171-2.794.512s-.921.678-.921,1.009c0,.976.936,1.569,2.809,1.78,4.877.54,8.184,1.093,9.919,1.659s3.218,1.601,4.446,3.104,1.843,3.318,1.843,5.445c0,3.259-1.36,5.846-4.081,7.759-2.722,1.913-6.471,2.869-11.25,2.869-8.056,0-13.038-3.013-14.95-9.04Z" style="fill: #fff; stroke-width: 0px;"/>
      <path d="M243.713,214.262l10.884.731c-.644,2.926-2.287,5.417-4.93,7.475-2.644,2.058-6.217,3.086-10.723,3.086-5.013,0-9.012-1.448-11.995-4.345-2.984-2.896-4.477-6.49-4.477-10.781,0-4.447,1.473-8.202,4.418-11.264,2.944-3.062,6.875-4.593,11.79-4.593,4.759,0,8.606,1.444,11.542,4.33,2.936,2.887,4.403,6.817,4.403,11.791,0,.41-.01.976-.029,1.697h-19.924c.039,1.873.37,3.262.994,4.169.624.907,1.814,1.361,3.569,1.361,2.536,0,4.027-1.219,4.477-3.657ZM242.923,206.539c-.02-2.009-.423-3.36-1.21-4.052-.787-.692-1.764-1.039-2.93-1.039-2.76,0-4.14,1.697-4.14,5.091h8.279Z" style="fill: #fff; stroke-width: 0px;"/>
    </g>
  </g>
</svg>